<mxfile host="app.diagrams.net" modified="2023-12-06T22:54:32.794Z" agent="Mozilla/5.0 (Windows NT 10.0; Win64; x64) AppleWebKit/537.36 (KHTML, like Gecko) Chrome/119.0.0.0 Safari/537.36" etag="6NrjAjNH-TemEL9lKgFc" version="22.1.5" type="device">
  <diagram name="Page-1" id="VmCRofBQDvbmoY8_WXnf">
    <mxGraphModel dx="1687" dy="918" grid="1" gridSize="10" guides="1" tooltips="1" connect="1" arrows="1" fold="1" page="1" pageScale="1" pageWidth="850" pageHeight="1100" math="0" shadow="0">
      <root>
        <mxCell id="0" />
        <mxCell id="1" parent="0" />
        <mxCell id="aRe0bVeVyauEwf_eW974-1" value="" style="endArrow=none;html=1;rounded=0;" edge="1" parent="1">
          <mxGeometry width="50" height="50" relative="1" as="geometry">
            <mxPoint x="460" y="470" as="sourcePoint" />
            <mxPoint x="1100" y="470" as="targetPoint" />
          </mxGeometry>
        </mxCell>
        <mxCell id="aRe0bVeVyauEwf_eW974-4" value="Day&lt;br&gt;0" style="text;html=1;strokeColor=none;fillColor=none;align=center;verticalAlign=middle;whiteSpace=wrap;rounded=0;" vertex="1" parent="1">
          <mxGeometry x="460" y="470" width="40" height="60" as="geometry" />
        </mxCell>
        <mxCell id="aRe0bVeVyauEwf_eW974-5" value="Day&lt;br&gt;1" style="text;html=1;strokeColor=none;fillColor=none;align=center;verticalAlign=middle;whiteSpace=wrap;rounded=0;" vertex="1" parent="1">
          <mxGeometry x="500" y="470" width="40" height="60" as="geometry" />
        </mxCell>
        <mxCell id="aRe0bVeVyauEwf_eW974-6" value="Day&lt;br&gt;2" style="text;html=1;strokeColor=none;fillColor=none;align=center;verticalAlign=middle;whiteSpace=wrap;rounded=0;" vertex="1" parent="1">
          <mxGeometry x="540" y="470" width="40" height="60" as="geometry" />
        </mxCell>
        <mxCell id="aRe0bVeVyauEwf_eW974-10" value="Day&lt;br&gt;3" style="text;html=1;strokeColor=none;fillColor=none;align=center;verticalAlign=middle;whiteSpace=wrap;rounded=0;" vertex="1" parent="1">
          <mxGeometry x="580" y="470" width="40" height="60" as="geometry" />
        </mxCell>
        <mxCell id="aRe0bVeVyauEwf_eW974-11" value="Day&lt;br&gt;4" style="text;html=1;strokeColor=none;fillColor=none;align=center;verticalAlign=middle;whiteSpace=wrap;rounded=0;" vertex="1" parent="1">
          <mxGeometry x="620" y="470" width="40" height="60" as="geometry" />
        </mxCell>
        <mxCell id="aRe0bVeVyauEwf_eW974-12" value="Day&lt;br&gt;5" style="text;html=1;strokeColor=none;fillColor=none;align=center;verticalAlign=middle;whiteSpace=wrap;rounded=0;" vertex="1" parent="1">
          <mxGeometry x="660" y="470" width="40" height="60" as="geometry" />
        </mxCell>
        <mxCell id="aRe0bVeVyauEwf_eW974-13" value="Day&lt;br&gt;6" style="text;html=1;strokeColor=none;fillColor=none;align=center;verticalAlign=middle;whiteSpace=wrap;rounded=0;" vertex="1" parent="1">
          <mxGeometry x="700" y="470" width="40" height="60" as="geometry" />
        </mxCell>
        <mxCell id="aRe0bVeVyauEwf_eW974-14" value="Day&lt;br&gt;7" style="text;html=1;strokeColor=none;fillColor=none;align=center;verticalAlign=middle;whiteSpace=wrap;rounded=0;" vertex="1" parent="1">
          <mxGeometry x="740" y="470" width="40" height="60" as="geometry" />
        </mxCell>
        <mxCell id="aRe0bVeVyauEwf_eW974-15" value="Day&lt;br&gt;8" style="text;html=1;strokeColor=none;fillColor=none;align=center;verticalAlign=middle;whiteSpace=wrap;rounded=0;" vertex="1" parent="1">
          <mxGeometry x="780" y="470" width="40" height="60" as="geometry" />
        </mxCell>
        <mxCell id="aRe0bVeVyauEwf_eW974-16" value="Day&lt;br&gt;9" style="text;html=1;strokeColor=none;fillColor=none;align=center;verticalAlign=middle;whiteSpace=wrap;rounded=0;" vertex="1" parent="1">
          <mxGeometry x="820" y="470" width="40" height="60" as="geometry" />
        </mxCell>
        <mxCell id="aRe0bVeVyauEwf_eW974-17" value="Day&lt;br&gt;10" style="text;html=1;strokeColor=none;fillColor=none;align=center;verticalAlign=middle;whiteSpace=wrap;rounded=0;" vertex="1" parent="1">
          <mxGeometry x="860" y="470" width="40" height="60" as="geometry" />
        </mxCell>
        <mxCell id="aRe0bVeVyauEwf_eW974-18" value="Day&lt;br&gt;11" style="text;html=1;strokeColor=none;fillColor=none;align=center;verticalAlign=middle;whiteSpace=wrap;rounded=0;" vertex="1" parent="1">
          <mxGeometry x="900" y="470" width="40" height="60" as="geometry" />
        </mxCell>
        <mxCell id="aRe0bVeVyauEwf_eW974-19" value="Day&lt;br&gt;12" style="text;html=1;strokeColor=none;fillColor=none;align=center;verticalAlign=middle;whiteSpace=wrap;rounded=0;" vertex="1" parent="1">
          <mxGeometry x="940" y="470" width="40" height="60" as="geometry" />
        </mxCell>
        <mxCell id="aRe0bVeVyauEwf_eW974-20" value="Day&lt;br&gt;13" style="text;html=1;strokeColor=none;fillColor=none;align=center;verticalAlign=middle;whiteSpace=wrap;rounded=0;" vertex="1" parent="1">
          <mxGeometry x="980" y="470" width="40" height="60" as="geometry" />
        </mxCell>
        <mxCell id="aRe0bVeVyauEwf_eW974-21" value="Day&lt;br&gt;14" style="text;html=1;strokeColor=none;fillColor=none;align=center;verticalAlign=middle;whiteSpace=wrap;rounded=0;" vertex="1" parent="1">
          <mxGeometry x="1020" y="470" width="40" height="60" as="geometry" />
        </mxCell>
        <mxCell id="aRe0bVeVyauEwf_eW974-22" value="" style="endArrow=none;html=1;rounded=0;strokeWidth=3;fillColor=#f5f5f5;strokeColor=#C9C9C9;" edge="1" parent="1">
          <mxGeometry width="50" height="50" relative="1" as="geometry">
            <mxPoint x="460" y="390" as="sourcePoint" />
            <mxPoint x="1100" y="390" as="targetPoint" />
          </mxGeometry>
        </mxCell>
        <mxCell id="aRe0bVeVyauEwf_eW974-23" value="" style="endArrow=none;html=1;rounded=0;strokeWidth=3;fillColor=#f5f5f5;strokeColor=#C9C9C9;" edge="1" parent="1">
          <mxGeometry width="50" height="50" relative="1" as="geometry">
            <mxPoint x="460" y="310" as="sourcePoint" />
            <mxPoint x="1100" y="310" as="targetPoint" />
          </mxGeometry>
        </mxCell>
        <mxCell id="aRe0bVeVyauEwf_eW974-24" value="" style="endArrow=none;html=1;rounded=0;strokeWidth=3;fillColor=#f5f5f5;strokeColor=#C9C9C9;" edge="1" parent="1" source="aRe0bVeVyauEwf_eW974-96">
          <mxGeometry width="50" height="50" relative="1" as="geometry">
            <mxPoint x="460" y="230" as="sourcePoint" />
            <mxPoint x="1100" y="230" as="targetPoint" />
          </mxGeometry>
        </mxCell>
        <mxCell id="aRe0bVeVyauEwf_eW974-25" value="" style="endArrow=none;html=1;rounded=0;strokeWidth=3;fillColor=#f5f5f5;strokeColor=#C9C9C9;" edge="1" parent="1">
          <mxGeometry width="50" height="50" relative="1" as="geometry">
            <mxPoint x="460" y="150" as="sourcePoint" />
            <mxPoint x="1100" y="150" as="targetPoint" />
          </mxGeometry>
        </mxCell>
        <mxCell id="aRe0bVeVyauEwf_eW974-26" value="Remaining Effort (hours)" style="text;html=1;strokeColor=none;fillColor=none;align=center;verticalAlign=middle;whiteSpace=wrap;rounded=0;rotation=-90;fontStyle=1" vertex="1" parent="1">
          <mxGeometry x="260" y="260" width="240" height="30" as="geometry" />
        </mxCell>
        <mxCell id="aRe0bVeVyauEwf_eW974-27" value="20" style="text;html=1;strokeColor=none;fillColor=none;align=center;verticalAlign=middle;whiteSpace=wrap;rounded=0;fontSize=15;" vertex="1" parent="1">
          <mxGeometry x="400" y="360" width="40" height="60" as="geometry" />
        </mxCell>
        <mxCell id="aRe0bVeVyauEwf_eW974-28" value="40" style="text;html=1;strokeColor=none;fillColor=none;align=center;verticalAlign=middle;whiteSpace=wrap;rounded=0;fontSize=15;" vertex="1" parent="1">
          <mxGeometry x="400" y="280" width="40" height="60" as="geometry" />
        </mxCell>
        <mxCell id="aRe0bVeVyauEwf_eW974-29" value="60" style="text;html=1;strokeColor=none;fillColor=none;align=center;verticalAlign=middle;whiteSpace=wrap;rounded=0;fontSize=15;" vertex="1" parent="1">
          <mxGeometry x="400" y="200" width="40" height="60" as="geometry" />
        </mxCell>
        <mxCell id="aRe0bVeVyauEwf_eW974-30" value="80" style="text;html=1;strokeColor=none;fillColor=none;align=center;verticalAlign=middle;whiteSpace=wrap;rounded=0;fontSize=15;" vertex="1" parent="1">
          <mxGeometry x="400" y="120" width="40" height="60" as="geometry" />
        </mxCell>
        <mxCell id="aRe0bVeVyauEwf_eW974-31" value="&lt;b&gt;&lt;font style=&quot;font-size: 20px;&quot;&gt;Burndown Chart Sprint 1&lt;/font&gt;&lt;/b&gt;" style="text;html=1;strokeColor=none;fillColor=none;align=center;verticalAlign=middle;whiteSpace=wrap;rounded=0;fontSize=15;" vertex="1" parent="1">
          <mxGeometry x="600" y="50" width="290" height="60" as="geometry" />
        </mxCell>
        <mxCell id="aRe0bVeVyauEwf_eW974-32" value="Remaining and Completed Tasks" style="text;html=1;strokeColor=none;fillColor=none;align=center;verticalAlign=middle;whiteSpace=wrap;rounded=0;rotation=-90;fontStyle=1" vertex="1" parent="1">
          <mxGeometry x="1040" y="260" width="240" height="30" as="geometry" />
        </mxCell>
        <mxCell id="aRe0bVeVyauEwf_eW974-33" value="20" style="text;html=1;strokeColor=none;fillColor=none;align=center;verticalAlign=middle;whiteSpace=wrap;rounded=0;fontSize=15;" vertex="1" parent="1">
          <mxGeometry x="1100" y="120" width="40" height="60" as="geometry" />
        </mxCell>
        <mxCell id="aRe0bVeVyauEwf_eW974-34" value="15" style="text;html=1;strokeColor=none;fillColor=none;align=center;verticalAlign=middle;whiteSpace=wrap;rounded=0;fontSize=15;" vertex="1" parent="1">
          <mxGeometry x="1100" y="200" width="40" height="60" as="geometry" />
        </mxCell>
        <mxCell id="aRe0bVeVyauEwf_eW974-35" value="10" style="text;html=1;strokeColor=none;fillColor=none;align=center;verticalAlign=middle;whiteSpace=wrap;rounded=0;fontSize=15;" vertex="1" parent="1">
          <mxGeometry x="1100" y="280" width="40" height="60" as="geometry" />
        </mxCell>
        <mxCell id="aRe0bVeVyauEwf_eW974-36" value="5" style="text;html=1;strokeColor=none;fillColor=none;align=center;verticalAlign=middle;whiteSpace=wrap;rounded=0;fontSize=15;" vertex="1" parent="1">
          <mxGeometry x="1100" y="360" width="40" height="60" as="geometry" />
        </mxCell>
        <mxCell id="aRe0bVeVyauEwf_eW974-37" value="0" style="text;html=1;strokeColor=none;fillColor=none;align=center;verticalAlign=middle;whiteSpace=wrap;rounded=0;fontSize=15;" vertex="1" parent="1">
          <mxGeometry x="1100" y="440" width="40" height="60" as="geometry" />
        </mxCell>
        <mxCell id="aRe0bVeVyauEwf_eW974-38" value="0" style="text;html=1;strokeColor=none;fillColor=none;align=center;verticalAlign=middle;whiteSpace=wrap;rounded=0;fontSize=15;" vertex="1" parent="1">
          <mxGeometry x="400" y="440" width="40" height="60" as="geometry" />
        </mxCell>
        <mxCell id="aRe0bVeVyauEwf_eW974-39" value="" style="endArrow=none;html=1;rounded=0;entryX=0.5;entryY=0;entryDx=0;entryDy=0;strokeWidth=3;strokeColor=#66CC00;" edge="1" parent="1" source="aRe0bVeVyauEwf_eW974-91" target="aRe0bVeVyauEwf_eW974-21">
          <mxGeometry width="50" height="50" relative="1" as="geometry">
            <mxPoint x="460" y="170" as="sourcePoint" />
            <mxPoint x="790" y="320" as="targetPoint" />
          </mxGeometry>
        </mxCell>
        <mxCell id="aRe0bVeVyauEwf_eW974-40" value="" style="endArrow=none;html=1;rounded=0;strokeWidth=2;strokeColor=#0066CC;targetPerimeterSpacing=0;sourcePerimeterSpacing=0;" edge="1" parent="1" source="aRe0bVeVyauEwf_eW974-93">
          <mxGeometry width="50" height="50" relative="1" as="geometry">
            <mxPoint x="460" y="170" as="sourcePoint" />
            <mxPoint x="1040" y="430" as="targetPoint" />
            <Array as="points">
              <mxPoint x="520" y="170" />
              <mxPoint x="560" y="190" />
              <mxPoint x="600" y="230" />
              <mxPoint x="640" y="270" />
              <mxPoint x="680" y="310" />
              <mxPoint x="720" y="350" />
              <mxPoint x="760" y="350" />
              <mxPoint x="800" y="350" />
              <mxPoint x="840" y="360" />
              <mxPoint x="880" y="380" />
              <mxPoint x="920" y="390" />
              <mxPoint x="960" y="410" />
            </Array>
          </mxGeometry>
        </mxCell>
        <mxCell id="aRe0bVeVyauEwf_eW974-41" value="" style="endArrow=none;html=1;rounded=0;" edge="1" parent="1">
          <mxGeometry width="50" height="50" relative="1" as="geometry">
            <mxPoint x="460" y="990" as="sourcePoint" />
            <mxPoint x="1100" y="990" as="targetPoint" />
          </mxGeometry>
        </mxCell>
        <mxCell id="aRe0bVeVyauEwf_eW974-42" value="Day&lt;br&gt;0" style="text;html=1;strokeColor=none;fillColor=none;align=center;verticalAlign=middle;whiteSpace=wrap;rounded=0;" vertex="1" parent="1">
          <mxGeometry x="460" y="990" width="40" height="60" as="geometry" />
        </mxCell>
        <mxCell id="aRe0bVeVyauEwf_eW974-43" value="Day&lt;br&gt;1" style="text;html=1;strokeColor=none;fillColor=none;align=center;verticalAlign=middle;whiteSpace=wrap;rounded=0;" vertex="1" parent="1">
          <mxGeometry x="500" y="990" width="40" height="60" as="geometry" />
        </mxCell>
        <mxCell id="aRe0bVeVyauEwf_eW974-44" value="Day&lt;br&gt;2" style="text;html=1;strokeColor=none;fillColor=none;align=center;verticalAlign=middle;whiteSpace=wrap;rounded=0;" vertex="1" parent="1">
          <mxGeometry x="540" y="990" width="40" height="60" as="geometry" />
        </mxCell>
        <mxCell id="aRe0bVeVyauEwf_eW974-45" value="Day&lt;br&gt;3" style="text;html=1;strokeColor=none;fillColor=none;align=center;verticalAlign=middle;whiteSpace=wrap;rounded=0;" vertex="1" parent="1">
          <mxGeometry x="580" y="990" width="40" height="60" as="geometry" />
        </mxCell>
        <mxCell id="aRe0bVeVyauEwf_eW974-46" value="Day&lt;br&gt;4" style="text;html=1;strokeColor=none;fillColor=none;align=center;verticalAlign=middle;whiteSpace=wrap;rounded=0;" vertex="1" parent="1">
          <mxGeometry x="620" y="990" width="40" height="60" as="geometry" />
        </mxCell>
        <mxCell id="aRe0bVeVyauEwf_eW974-47" value="Day&lt;br&gt;5" style="text;html=1;strokeColor=none;fillColor=none;align=center;verticalAlign=middle;whiteSpace=wrap;rounded=0;" vertex="1" parent="1">
          <mxGeometry x="660" y="990" width="40" height="60" as="geometry" />
        </mxCell>
        <mxCell id="aRe0bVeVyauEwf_eW974-48" value="Day&lt;br&gt;6" style="text;html=1;strokeColor=none;fillColor=none;align=center;verticalAlign=middle;whiteSpace=wrap;rounded=0;" vertex="1" parent="1">
          <mxGeometry x="700" y="990" width="40" height="60" as="geometry" />
        </mxCell>
        <mxCell id="aRe0bVeVyauEwf_eW974-49" value="Day&lt;br&gt;7" style="text;html=1;strokeColor=none;fillColor=none;align=center;verticalAlign=middle;whiteSpace=wrap;rounded=0;" vertex="1" parent="1">
          <mxGeometry x="740" y="990" width="40" height="60" as="geometry" />
        </mxCell>
        <mxCell id="aRe0bVeVyauEwf_eW974-50" value="Day&lt;br&gt;8" style="text;html=1;strokeColor=none;fillColor=none;align=center;verticalAlign=middle;whiteSpace=wrap;rounded=0;" vertex="1" parent="1">
          <mxGeometry x="780" y="990" width="40" height="60" as="geometry" />
        </mxCell>
        <mxCell id="aRe0bVeVyauEwf_eW974-51" value="Day&lt;br&gt;9" style="text;html=1;strokeColor=none;fillColor=none;align=center;verticalAlign=middle;whiteSpace=wrap;rounded=0;" vertex="1" parent="1">
          <mxGeometry x="820" y="990" width="40" height="60" as="geometry" />
        </mxCell>
        <mxCell id="aRe0bVeVyauEwf_eW974-52" value="Day&lt;br&gt;10" style="text;html=1;strokeColor=none;fillColor=none;align=center;verticalAlign=middle;whiteSpace=wrap;rounded=0;" vertex="1" parent="1">
          <mxGeometry x="860" y="990" width="40" height="60" as="geometry" />
        </mxCell>
        <mxCell id="aRe0bVeVyauEwf_eW974-53" value="Day&lt;br&gt;11" style="text;html=1;strokeColor=none;fillColor=none;align=center;verticalAlign=middle;whiteSpace=wrap;rounded=0;" vertex="1" parent="1">
          <mxGeometry x="900" y="990" width="40" height="60" as="geometry" />
        </mxCell>
        <mxCell id="aRe0bVeVyauEwf_eW974-54" value="Day&lt;br&gt;12" style="text;html=1;strokeColor=none;fillColor=none;align=center;verticalAlign=middle;whiteSpace=wrap;rounded=0;" vertex="1" parent="1">
          <mxGeometry x="940" y="990" width="40" height="60" as="geometry" />
        </mxCell>
        <mxCell id="aRe0bVeVyauEwf_eW974-55" value="Day&lt;br&gt;13" style="text;html=1;strokeColor=none;fillColor=none;align=center;verticalAlign=middle;whiteSpace=wrap;rounded=0;" vertex="1" parent="1">
          <mxGeometry x="980" y="990" width="40" height="60" as="geometry" />
        </mxCell>
        <mxCell id="aRe0bVeVyauEwf_eW974-56" value="Day&lt;br&gt;14" style="text;html=1;strokeColor=none;fillColor=none;align=center;verticalAlign=middle;whiteSpace=wrap;rounded=0;" vertex="1" parent="1">
          <mxGeometry x="1020" y="990" width="40" height="60" as="geometry" />
        </mxCell>
        <mxCell id="aRe0bVeVyauEwf_eW974-57" value="" style="endArrow=none;html=1;rounded=0;strokeWidth=3;fillColor=#f5f5f5;strokeColor=#C9C9C9;" edge="1" parent="1">
          <mxGeometry width="50" height="50" relative="1" as="geometry">
            <mxPoint x="460" y="910" as="sourcePoint" />
            <mxPoint x="1100" y="910" as="targetPoint" />
          </mxGeometry>
        </mxCell>
        <mxCell id="aRe0bVeVyauEwf_eW974-58" value="" style="endArrow=none;html=1;rounded=0;strokeWidth=3;fillColor=#f5f5f5;strokeColor=#C9C9C9;" edge="1" parent="1">
          <mxGeometry width="50" height="50" relative="1" as="geometry">
            <mxPoint x="460" y="830" as="sourcePoint" />
            <mxPoint x="1100" y="830" as="targetPoint" />
          </mxGeometry>
        </mxCell>
        <mxCell id="aRe0bVeVyauEwf_eW974-59" value="" style="endArrow=none;html=1;rounded=0;strokeWidth=3;fillColor=#f5f5f5;strokeColor=#C9C9C9;" edge="1" parent="1">
          <mxGeometry width="50" height="50" relative="1" as="geometry">
            <mxPoint x="460" y="750" as="sourcePoint" />
            <mxPoint x="1100" y="750" as="targetPoint" />
          </mxGeometry>
        </mxCell>
        <mxCell id="aRe0bVeVyauEwf_eW974-60" value="" style="endArrow=none;html=1;rounded=0;strokeWidth=3;fillColor=#f5f5f5;strokeColor=#C9C9C9;" edge="1" parent="1">
          <mxGeometry width="50" height="50" relative="1" as="geometry">
            <mxPoint x="460" y="670" as="sourcePoint" />
            <mxPoint x="1100" y="670" as="targetPoint" />
          </mxGeometry>
        </mxCell>
        <mxCell id="aRe0bVeVyauEwf_eW974-61" value="Remaining Effort (hours)" style="text;html=1;strokeColor=none;fillColor=none;align=center;verticalAlign=middle;whiteSpace=wrap;rounded=0;rotation=-90;fontStyle=1" vertex="1" parent="1">
          <mxGeometry x="260" y="780" width="240" height="30" as="geometry" />
        </mxCell>
        <mxCell id="aRe0bVeVyauEwf_eW974-62" value="20" style="text;html=1;strokeColor=none;fillColor=none;align=center;verticalAlign=middle;whiteSpace=wrap;rounded=0;fontSize=15;" vertex="1" parent="1">
          <mxGeometry x="400" y="880" width="40" height="60" as="geometry" />
        </mxCell>
        <mxCell id="aRe0bVeVyauEwf_eW974-63" value="40" style="text;html=1;strokeColor=none;fillColor=none;align=center;verticalAlign=middle;whiteSpace=wrap;rounded=0;fontSize=15;" vertex="1" parent="1">
          <mxGeometry x="400" y="800" width="40" height="60" as="geometry" />
        </mxCell>
        <mxCell id="aRe0bVeVyauEwf_eW974-64" value="60" style="text;html=1;strokeColor=none;fillColor=none;align=center;verticalAlign=middle;whiteSpace=wrap;rounded=0;fontSize=15;" vertex="1" parent="1">
          <mxGeometry x="400" y="720" width="40" height="60" as="geometry" />
        </mxCell>
        <mxCell id="aRe0bVeVyauEwf_eW974-65" value="80" style="text;html=1;strokeColor=none;fillColor=none;align=center;verticalAlign=middle;whiteSpace=wrap;rounded=0;fontSize=15;" vertex="1" parent="1">
          <mxGeometry x="400" y="640" width="40" height="60" as="geometry" />
        </mxCell>
        <mxCell id="aRe0bVeVyauEwf_eW974-66" value="&lt;b&gt;&lt;font style=&quot;font-size: 20px;&quot;&gt;Burndown Chart Sprint 2&lt;/font&gt;&lt;/b&gt;" style="text;html=1;strokeColor=none;fillColor=none;align=center;verticalAlign=middle;whiteSpace=wrap;rounded=0;fontSize=15;" vertex="1" parent="1">
          <mxGeometry x="600" y="570" width="290" height="60" as="geometry" />
        </mxCell>
        <mxCell id="aRe0bVeVyauEwf_eW974-67" value="Remaining and Completed Tasks" style="text;html=1;strokeColor=none;fillColor=none;align=center;verticalAlign=middle;whiteSpace=wrap;rounded=0;rotation=-90;fontStyle=1" vertex="1" parent="1">
          <mxGeometry x="1040" y="780" width="240" height="30" as="geometry" />
        </mxCell>
        <mxCell id="aRe0bVeVyauEwf_eW974-68" value="20" style="text;html=1;strokeColor=none;fillColor=none;align=center;verticalAlign=middle;whiteSpace=wrap;rounded=0;fontSize=15;" vertex="1" parent="1">
          <mxGeometry x="1100" y="640" width="40" height="60" as="geometry" />
        </mxCell>
        <mxCell id="aRe0bVeVyauEwf_eW974-69" value="15" style="text;html=1;strokeColor=none;fillColor=none;align=center;verticalAlign=middle;whiteSpace=wrap;rounded=0;fontSize=15;" vertex="1" parent="1">
          <mxGeometry x="1100" y="720" width="40" height="60" as="geometry" />
        </mxCell>
        <mxCell id="aRe0bVeVyauEwf_eW974-70" value="10" style="text;html=1;strokeColor=none;fillColor=none;align=center;verticalAlign=middle;whiteSpace=wrap;rounded=0;fontSize=15;" vertex="1" parent="1">
          <mxGeometry x="1100" y="800" width="40" height="60" as="geometry" />
        </mxCell>
        <mxCell id="aRe0bVeVyauEwf_eW974-71" value="5" style="text;html=1;strokeColor=none;fillColor=none;align=center;verticalAlign=middle;whiteSpace=wrap;rounded=0;fontSize=15;" vertex="1" parent="1">
          <mxGeometry x="1100" y="880" width="40" height="60" as="geometry" />
        </mxCell>
        <mxCell id="aRe0bVeVyauEwf_eW974-72" value="0" style="text;html=1;strokeColor=none;fillColor=none;align=center;verticalAlign=middle;whiteSpace=wrap;rounded=0;fontSize=15;" vertex="1" parent="1">
          <mxGeometry x="1100" y="960" width="40" height="60" as="geometry" />
        </mxCell>
        <mxCell id="aRe0bVeVyauEwf_eW974-73" value="0" style="text;html=1;strokeColor=none;fillColor=none;align=center;verticalAlign=middle;whiteSpace=wrap;rounded=0;fontSize=15;" vertex="1" parent="1">
          <mxGeometry x="400" y="960" width="40" height="60" as="geometry" />
        </mxCell>
        <mxCell id="aRe0bVeVyauEwf_eW974-74" value="" style="endArrow=none;html=1;rounded=0;entryX=0.5;entryY=0;entryDx=0;entryDy=0;strokeWidth=3;strokeColor=#66CC00;" edge="1" parent="1" target="aRe0bVeVyauEwf_eW974-54">
          <mxGeometry width="50" height="50" relative="1" as="geometry">
            <mxPoint x="480" y="690" as="sourcePoint" />
            <mxPoint x="790" y="840" as="targetPoint" />
          </mxGeometry>
        </mxCell>
        <mxCell id="aRe0bVeVyauEwf_eW974-75" value="" style="endArrow=none;html=1;rounded=0;strokeWidth=2;strokeColor=#0066CC;" edge="1" parent="1">
          <mxGeometry width="50" height="50" relative="1" as="geometry">
            <mxPoint x="480" y="650" as="sourcePoint" />
            <mxPoint x="960" y="990" as="targetPoint" />
            <Array as="points">
              <mxPoint x="560" y="750" />
              <mxPoint x="600" y="790" />
              <mxPoint x="640" y="830" />
              <mxPoint x="720" y="870" />
              <mxPoint x="760" y="890" />
              <mxPoint x="800" y="910" />
              <mxPoint x="880" y="940" />
              <mxPoint x="920" y="980" />
            </Array>
          </mxGeometry>
        </mxCell>
        <mxCell id="aRe0bVeVyauEwf_eW974-76" value="" style="rounded=0;whiteSpace=wrap;html=1;fillColor=#FFEA29;strokeColor=#d6b656;" vertex="1" parent="1">
          <mxGeometry x="1200" y="240" width="60" height="20" as="geometry" />
        </mxCell>
        <mxCell id="aRe0bVeVyauEwf_eW974-77" value="" style="endArrow=none;html=1;rounded=0;strokeWidth=2;strokeColor=#0066CC;targetPerimeterSpacing=0;sourcePerimeterSpacing=0;" edge="1" parent="1">
          <mxGeometry width="50" height="50" relative="1" as="geometry">
            <mxPoint x="1200" y="290" as="sourcePoint" />
            <mxPoint x="1260" y="290" as="targetPoint" />
            <Array as="points">
              <mxPoint x="1210" y="290" />
              <mxPoint x="1220" y="290" />
            </Array>
          </mxGeometry>
        </mxCell>
        <mxCell id="aRe0bVeVyauEwf_eW974-79" value="" style="endArrow=none;html=1;rounded=0;strokeWidth=3;strokeColor=#66CC00;" edge="1" parent="1">
          <mxGeometry width="50" height="50" relative="1" as="geometry">
            <mxPoint x="1200" y="330" as="sourcePoint" />
            <mxPoint x="1260" y="330" as="targetPoint" />
          </mxGeometry>
        </mxCell>
        <mxCell id="aRe0bVeVyauEwf_eW974-80" value="Completed Tasks" style="text;html=1;strokeColor=none;fillColor=none;align=center;verticalAlign=middle;whiteSpace=wrap;rounded=0;fontStyle=0" vertex="1" parent="1">
          <mxGeometry x="1250" y="230" width="130" height="40" as="geometry" />
        </mxCell>
        <mxCell id="aRe0bVeVyauEwf_eW974-81" value="Remaining Effort" style="text;html=1;strokeColor=none;fillColor=none;align=center;verticalAlign=middle;whiteSpace=wrap;rounded=0;fontStyle=0" vertex="1" parent="1">
          <mxGeometry x="1250" y="270" width="130" height="40" as="geometry" />
        </mxCell>
        <mxCell id="aRe0bVeVyauEwf_eW974-82" value="Ideal burndown" style="text;html=1;strokeColor=none;fillColor=none;align=center;verticalAlign=middle;whiteSpace=wrap;rounded=0;fontStyle=0" vertex="1" parent="1">
          <mxGeometry x="1250" y="310" width="130" height="40" as="geometry" />
        </mxCell>
        <mxCell id="aRe0bVeVyauEwf_eW974-83" value="" style="rounded=0;whiteSpace=wrap;html=1;fillColor=#FFEA29;strokeColor=#d6b656;" vertex="1" parent="1">
          <mxGeometry x="1200" y="745" width="60" height="20" as="geometry" />
        </mxCell>
        <mxCell id="aRe0bVeVyauEwf_eW974-84" value="" style="endArrow=none;html=1;rounded=0;strokeWidth=2;strokeColor=#0066CC;targetPerimeterSpacing=0;sourcePerimeterSpacing=0;" edge="1" parent="1">
          <mxGeometry width="50" height="50" relative="1" as="geometry">
            <mxPoint x="1200" y="795" as="sourcePoint" />
            <mxPoint x="1260" y="795" as="targetPoint" />
            <Array as="points">
              <mxPoint x="1210" y="795" />
              <mxPoint x="1220" y="795" />
            </Array>
          </mxGeometry>
        </mxCell>
        <mxCell id="aRe0bVeVyauEwf_eW974-85" value="" style="endArrow=none;html=1;rounded=0;strokeWidth=3;strokeColor=#66CC00;" edge="1" parent="1">
          <mxGeometry width="50" height="50" relative="1" as="geometry">
            <mxPoint x="1200" y="835" as="sourcePoint" />
            <mxPoint x="1260" y="835" as="targetPoint" />
          </mxGeometry>
        </mxCell>
        <mxCell id="aRe0bVeVyauEwf_eW974-86" value="Completed Tasks" style="text;html=1;strokeColor=none;fillColor=none;align=center;verticalAlign=middle;whiteSpace=wrap;rounded=0;fontStyle=0" vertex="1" parent="1">
          <mxGeometry x="1250" y="735" width="130" height="40" as="geometry" />
        </mxCell>
        <mxCell id="aRe0bVeVyauEwf_eW974-87" value="Remaining Effort" style="text;html=1;strokeColor=none;fillColor=none;align=center;verticalAlign=middle;whiteSpace=wrap;rounded=0;fontStyle=0" vertex="1" parent="1">
          <mxGeometry x="1250" y="775" width="130" height="40" as="geometry" />
        </mxCell>
        <mxCell id="aRe0bVeVyauEwf_eW974-88" value="Ideal burndown" style="text;html=1;strokeColor=none;fillColor=none;align=center;verticalAlign=middle;whiteSpace=wrap;rounded=0;fontStyle=0" vertex="1" parent="1">
          <mxGeometry x="1250" y="815" width="130" height="40" as="geometry" />
        </mxCell>
        <mxCell id="aRe0bVeVyauEwf_eW974-90" value="" style="endArrow=none;html=1;rounded=0;strokeWidth=2;strokeColor=#0066CC;targetPerimeterSpacing=0;sourcePerimeterSpacing=0;" edge="1" parent="1" source="aRe0bVeVyauEwf_eW974-91" target="aRe0bVeVyauEwf_eW974-89">
          <mxGeometry width="50" height="50" relative="1" as="geometry">
            <mxPoint x="460" y="170" as="sourcePoint" />
            <mxPoint x="1040" y="430" as="targetPoint" />
            <Array as="points" />
          </mxGeometry>
        </mxCell>
        <mxCell id="aRe0bVeVyauEwf_eW974-89" value="" style="shape=waypoint;sketch=0;fillStyle=solid;size=6;pointerEvents=1;points=[];fillColor=none;resizable=0;rotatable=0;perimeter=centerPerimeter;snapToPoint=1;spacing=2;fontSize=12;strokeWidth=2;strokeColor=#004794;" vertex="1" parent="1">
          <mxGeometry x="510" y="160" width="20" height="20" as="geometry" />
        </mxCell>
        <mxCell id="aRe0bVeVyauEwf_eW974-92" value="" style="endArrow=none;html=1;rounded=0;strokeWidth=2;strokeColor=#0066CC;targetPerimeterSpacing=0;sourcePerimeterSpacing=0;" edge="1" parent="1" target="aRe0bVeVyauEwf_eW974-91">
          <mxGeometry width="50" height="50" relative="1" as="geometry">
            <mxPoint x="480" y="170" as="sourcePoint" />
            <mxPoint x="520" y="170" as="targetPoint" />
            <Array as="points" />
          </mxGeometry>
        </mxCell>
        <mxCell id="aRe0bVeVyauEwf_eW974-91" value="" style="shape=waypoint;sketch=0;fillStyle=solid;size=6;pointerEvents=1;points=[];fillColor=none;resizable=0;rotatable=0;perimeter=centerPerimeter;snapToPoint=1;spacing=2;fontSize=12;strokeWidth=2;strokeColor=#004794;" vertex="1" parent="1">
          <mxGeometry x="470" y="160" width="20" height="20" as="geometry" />
        </mxCell>
        <mxCell id="aRe0bVeVyauEwf_eW974-94" value="" style="endArrow=none;html=1;rounded=0;strokeWidth=2;strokeColor=#0066CC;targetPerimeterSpacing=0;sourcePerimeterSpacing=0;" edge="1" parent="1" target="aRe0bVeVyauEwf_eW974-93">
          <mxGeometry width="50" height="50" relative="1" as="geometry">
            <mxPoint x="540" y="180" as="sourcePoint" />
            <mxPoint x="1040" y="430" as="targetPoint" />
            <Array as="points" />
          </mxGeometry>
        </mxCell>
        <mxCell id="aRe0bVeVyauEwf_eW974-93" value="" style="shape=waypoint;sketch=0;fillStyle=solid;size=6;pointerEvents=1;points=[];fillColor=none;resizable=0;rotatable=0;perimeter=centerPerimeter;snapToPoint=1;spacing=2;fontSize=12;strokeWidth=2;strokeColor=#004794;" vertex="1" parent="1">
          <mxGeometry x="550" y="180" width="20" height="20" as="geometry" />
        </mxCell>
        <mxCell id="aRe0bVeVyauEwf_eW974-99" value="" style="endArrow=none;html=1;rounded=0;strokeWidth=3;fillColor=#f5f5f5;strokeColor=#C9C9C9;" edge="1" parent="1" target="aRe0bVeVyauEwf_eW974-96">
          <mxGeometry width="50" height="50" relative="1" as="geometry">
            <mxPoint x="460" y="230" as="sourcePoint" />
            <mxPoint x="1100" y="230" as="targetPoint" />
          </mxGeometry>
        </mxCell>
        <mxCell id="aRe0bVeVyauEwf_eW974-96" value="" style="shape=waypoint;sketch=0;fillStyle=solid;size=6;pointerEvents=1;points=[];fillColor=none;resizable=0;rotatable=0;perimeter=centerPerimeter;snapToPoint=1;spacing=2;fontSize=12;strokeWidth=2;strokeColor=#004794;" vertex="1" parent="1">
          <mxGeometry x="590" y="220" width="20" height="20" as="geometry" />
        </mxCell>
        <mxCell id="aRe0bVeVyauEwf_eW974-100" value="" style="shape=waypoint;sketch=0;fillStyle=solid;size=6;pointerEvents=1;points=[];fillColor=none;resizable=0;rotatable=0;perimeter=centerPerimeter;snapToPoint=1;spacing=2;fontSize=12;strokeWidth=2;strokeColor=#004794;" vertex="1" parent="1">
          <mxGeometry x="630" y="260" width="20" height="20" as="geometry" />
        </mxCell>
        <mxCell id="aRe0bVeVyauEwf_eW974-101" value="" style="shape=waypoint;sketch=0;fillStyle=solid;size=6;pointerEvents=1;points=[];fillColor=none;resizable=0;rotatable=0;perimeter=centerPerimeter;snapToPoint=1;spacing=2;fontSize=12;strokeWidth=2;strokeColor=#004794;" vertex="1" parent="1">
          <mxGeometry x="670" y="300" width="20" height="20" as="geometry" />
        </mxCell>
        <mxCell id="aRe0bVeVyauEwf_eW974-102" value="" style="shape=waypoint;sketch=0;fillStyle=solid;size=6;pointerEvents=1;points=[];fillColor=none;resizable=0;rotatable=0;perimeter=centerPerimeter;snapToPoint=1;spacing=2;fontSize=12;strokeWidth=2;strokeColor=#004794;" vertex="1" parent="1">
          <mxGeometry x="710" y="340" width="20" height="20" as="geometry" />
        </mxCell>
        <mxCell id="aRe0bVeVyauEwf_eW974-103" value="" style="shape=waypoint;sketch=0;fillStyle=solid;size=6;pointerEvents=1;points=[];fillColor=none;resizable=0;rotatable=0;perimeter=centerPerimeter;snapToPoint=1;spacing=2;fontSize=12;strokeWidth=2;strokeColor=#004794;" vertex="1" parent="1">
          <mxGeometry x="790" y="340" width="20" height="20" as="geometry" />
        </mxCell>
        <mxCell id="aRe0bVeVyauEwf_eW974-104" value="" style="shape=waypoint;sketch=0;fillStyle=solid;size=6;pointerEvents=1;points=[];fillColor=none;resizable=0;rotatable=0;perimeter=centerPerimeter;snapToPoint=1;spacing=2;fontSize=12;strokeWidth=2;strokeColor=#004794;" vertex="1" parent="1">
          <mxGeometry x="830" y="350" width="20" height="20" as="geometry" />
        </mxCell>
        <mxCell id="aRe0bVeVyauEwf_eW974-105" value="" style="shape=waypoint;sketch=0;fillStyle=solid;size=6;pointerEvents=1;points=[];fillColor=none;resizable=0;rotatable=0;perimeter=centerPerimeter;snapToPoint=1;spacing=2;fontSize=12;strokeWidth=2;strokeColor=#004794;" vertex="1" parent="1">
          <mxGeometry x="870" y="370" width="20" height="20" as="geometry" />
        </mxCell>
        <mxCell id="aRe0bVeVyauEwf_eW974-107" value="" style="shape=waypoint;sketch=0;fillStyle=solid;size=6;pointerEvents=1;points=[];fillColor=none;resizable=0;rotatable=0;perimeter=centerPerimeter;snapToPoint=1;spacing=2;fontSize=12;strokeWidth=2;strokeColor=#004794;" vertex="1" parent="1">
          <mxGeometry x="910" y="380" width="20" height="20" as="geometry" />
        </mxCell>
        <mxCell id="aRe0bVeVyauEwf_eW974-108" value="" style="shape=waypoint;sketch=0;fillStyle=solid;size=6;pointerEvents=1;points=[];fillColor=none;resizable=0;rotatable=0;perimeter=centerPerimeter;snapToPoint=1;spacing=2;fontSize=12;strokeWidth=2;strokeColor=#004794;" vertex="1" parent="1">
          <mxGeometry x="950" y="400" width="20" height="20" as="geometry" />
        </mxCell>
        <mxCell id="aRe0bVeVyauEwf_eW974-109" value="" style="shape=waypoint;sketch=0;fillStyle=solid;size=6;pointerEvents=1;points=[];fillColor=none;resizable=0;rotatable=0;perimeter=centerPerimeter;snapToPoint=1;spacing=2;fontSize=12;strokeWidth=2;strokeColor=#004794;" vertex="1" parent="1">
          <mxGeometry x="990" y="410" width="20" height="20" as="geometry" />
        </mxCell>
        <mxCell id="aRe0bVeVyauEwf_eW974-110" value="" style="shape=waypoint;sketch=0;fillStyle=solid;size=6;pointerEvents=1;points=[];fillColor=none;resizable=0;rotatable=0;perimeter=centerPerimeter;snapToPoint=1;spacing=2;fontSize=12;strokeWidth=2;strokeColor=#004794;" vertex="1" parent="1">
          <mxGeometry x="1030" y="420" width="20" height="20" as="geometry" />
        </mxCell>
        <mxCell id="aRe0bVeVyauEwf_eW974-111" value="" style="shape=waypoint;sketch=0;fillStyle=solid;size=6;pointerEvents=1;points=[];fillColor=none;resizable=0;rotatable=0;perimeter=centerPerimeter;snapToPoint=1;spacing=2;fontSize=12;strokeWidth=2;strokeColor=#004794;" vertex="1" parent="1">
          <mxGeometry x="1220" y="280" width="20" height="20" as="geometry" />
        </mxCell>
        <mxCell id="aRe0bVeVyauEwf_eW974-112" value="" style="shape=waypoint;sketch=0;fillStyle=solid;size=6;pointerEvents=1;points=[];fillColor=none;resizable=0;rotatable=0;perimeter=centerPerimeter;snapToPoint=1;spacing=2;fontSize=12;strokeWidth=2;strokeColor=#004794;" vertex="1" parent="1">
          <mxGeometry x="470" y="640" width="20" height="20" as="geometry" />
        </mxCell>
        <mxCell id="aRe0bVeVyauEwf_eW974-114" value="" style="shape=waypoint;sketch=0;fillStyle=solid;size=6;pointerEvents=1;points=[];fillColor=none;resizable=0;rotatable=0;perimeter=centerPerimeter;snapToPoint=1;spacing=2;fontSize=12;strokeWidth=2;strokeColor=#004794;" vertex="1" parent="1">
          <mxGeometry x="510" y="690" width="20" height="20" as="geometry" />
        </mxCell>
        <mxCell id="aRe0bVeVyauEwf_eW974-115" value="" style="shape=waypoint;sketch=0;fillStyle=solid;size=6;pointerEvents=1;points=[];fillColor=none;resizable=0;rotatable=0;perimeter=centerPerimeter;snapToPoint=1;spacing=2;fontSize=12;strokeWidth=2;strokeColor=#004794;" vertex="1" parent="1">
          <mxGeometry x="550" y="740" width="20" height="20" as="geometry" />
        </mxCell>
        <mxCell id="aRe0bVeVyauEwf_eW974-116" value="" style="shape=waypoint;sketch=0;fillStyle=solid;size=6;pointerEvents=1;points=[];fillColor=none;resizable=0;rotatable=0;perimeter=centerPerimeter;snapToPoint=1;spacing=2;fontSize=12;strokeWidth=2;strokeColor=#004794;" vertex="1" parent="1">
          <mxGeometry x="590" y="780" width="20" height="20" as="geometry" />
        </mxCell>
        <mxCell id="aRe0bVeVyauEwf_eW974-117" value="" style="shape=waypoint;sketch=0;fillStyle=solid;size=6;pointerEvents=1;points=[];fillColor=none;resizable=0;rotatable=0;perimeter=centerPerimeter;snapToPoint=1;spacing=2;fontSize=12;strokeWidth=2;strokeColor=#004794;" vertex="1" parent="1">
          <mxGeometry x="630" y="820" width="20" height="20" as="geometry" />
        </mxCell>
        <mxCell id="aRe0bVeVyauEwf_eW974-118" value="" style="shape=waypoint;sketch=0;fillStyle=solid;size=6;pointerEvents=1;points=[];fillColor=none;resizable=0;rotatable=0;perimeter=centerPerimeter;snapToPoint=1;spacing=2;fontSize=12;strokeWidth=2;strokeColor=#004794;" vertex="1" parent="1">
          <mxGeometry x="670" y="840" width="20" height="20" as="geometry" />
        </mxCell>
        <mxCell id="aRe0bVeVyauEwf_eW974-119" value="" style="shape=waypoint;sketch=0;fillStyle=solid;size=6;pointerEvents=1;points=[];fillColor=none;resizable=0;rotatable=0;perimeter=centerPerimeter;snapToPoint=1;spacing=2;fontSize=12;strokeWidth=2;strokeColor=#004794;" vertex="1" parent="1">
          <mxGeometry x="710" y="860" width="20" height="20" as="geometry" />
        </mxCell>
        <mxCell id="aRe0bVeVyauEwf_eW974-120" value="" style="shape=waypoint;sketch=0;fillStyle=solid;size=6;pointerEvents=1;points=[];fillColor=none;resizable=0;rotatable=0;perimeter=centerPerimeter;snapToPoint=1;spacing=2;fontSize=12;strokeWidth=2;strokeColor=#004794;" vertex="1" parent="1">
          <mxGeometry x="750" y="880" width="20" height="20" as="geometry" />
        </mxCell>
        <mxCell id="aRe0bVeVyauEwf_eW974-121" value="" style="shape=waypoint;sketch=0;fillStyle=solid;size=6;pointerEvents=1;points=[];fillColor=none;resizable=0;rotatable=0;perimeter=centerPerimeter;snapToPoint=1;spacing=2;fontSize=12;strokeWidth=2;strokeColor=#004794;" vertex="1" parent="1">
          <mxGeometry x="790" y="900" width="20" height="20" as="geometry" />
        </mxCell>
        <mxCell id="aRe0bVeVyauEwf_eW974-122" value="" style="shape=waypoint;sketch=0;fillStyle=solid;size=6;pointerEvents=1;points=[];fillColor=none;resizable=0;rotatable=0;perimeter=centerPerimeter;snapToPoint=1;spacing=2;fontSize=12;strokeWidth=2;strokeColor=#004794;" vertex="1" parent="1">
          <mxGeometry x="830" y="915" width="20" height="20" as="geometry" />
        </mxCell>
        <mxCell id="aRe0bVeVyauEwf_eW974-123" value="" style="shape=waypoint;sketch=0;fillStyle=solid;size=6;pointerEvents=1;points=[];fillColor=none;resizable=0;rotatable=0;perimeter=centerPerimeter;snapToPoint=1;spacing=2;fontSize=12;strokeWidth=2;strokeColor=#004794;" vertex="1" parent="1">
          <mxGeometry x="870" y="930" width="20" height="20" as="geometry" />
        </mxCell>
        <mxCell id="aRe0bVeVyauEwf_eW974-124" value="" style="shape=waypoint;sketch=0;fillStyle=solid;size=6;pointerEvents=1;points=[];fillColor=none;resizable=0;rotatable=0;perimeter=centerPerimeter;snapToPoint=1;spacing=2;fontSize=12;strokeWidth=2;strokeColor=#004794;" vertex="1" parent="1">
          <mxGeometry x="910" y="970" width="20" height="20" as="geometry" />
        </mxCell>
        <mxCell id="aRe0bVeVyauEwf_eW974-125" value="" style="shape=waypoint;sketch=0;fillStyle=solid;size=6;pointerEvents=1;points=[];fillColor=none;resizable=0;rotatable=0;perimeter=centerPerimeter;snapToPoint=1;spacing=2;fontSize=12;strokeWidth=2;strokeColor=#004794;" vertex="1" parent="1">
          <mxGeometry x="950" y="980" width="20" height="20" as="geometry" />
        </mxCell>
      </root>
    </mxGraphModel>
  </diagram>
</mxfile>
